{"title":"Romeo Must Die-720p MP4 AAC x264 BRRip 2000-CC","uid":7593545,"size":2887508768,"categoryP":"video","categoryS":"hd___movies","magnet":"?xt=urn:btih:91cdd49c55780dcdd4ecd08006e8465a12351afe&amp;dn=Romeo+Must+Die-720p+MP4+AAC+x264+BRRip+2000-CC&amp;tr=udp%3A%2F%2Ftracker.openbittorrent.com%3A80&amp;tr=udp%3A%2F%2Fopen.demonii.com%3A1337&amp;tr=udp%3A%2F%2Ftracker.coppersurfer.tk%3A6969&amp;tr=udp%3A%2F%2Fexodus.desync.com%3A6969","seeders":0,"leechers":1,"uploader":"Caveman44","files":-1,"time":1346622801,"description":" &lt;a href=&quot;http://www.imdb.com/title/tt0165929/&quot; rel=&quot;nofollow&quot; target=&quot;_NEW&quot;&gt;http://www.imdb.com/title/tt0165929/&lt;/a&gt;\n\nSource: Romeo.Must.Die.2000.720p.BluRay.x264-KaKa Thanks!\n\nSubs: Arabic, Danish, Dutch, English, Finnish, Greek, Hungarian, Norwegian, Romanian, Swedish and Vietnamese.\n\nSample and Screens included.\n\nGeneral\nComplete name                    : Romeo Must Die-720p MP4 AAC x264 BRRip 2000-CC.mp4\nFormat                           : MPEG-4\nFormat profile                   : Base Media\nCodec ID                         : isom\nFile size                        : 2.66 GiB\nDuration                         : 1h 55mn\nOverall bit rate                 : 3 309 Kbps\nEncoded date                     : UTC 2012-08-30 11:00:16\n\nVideo\nID                               : 1\nFormat                           : AVC\nFormat/Info                      : Advanced Video Codec\nFormat profile                   : &lt;a class=&quot;__cf_email__&quot; href=&quot;/cdn-cgi/l/email-protection&quot; data-cfemail=&quot;367e5f515e767a051807&quot;&gt;[email&amp;#160;protected]&lt;/a&gt;&lt;script data-cfhash='f9e31' type=&quot;text/javascript&quot;&gt;\n/* &lt;![CDATA[ */!function(){try{var t=&quot;currentScript&quot;in document?document.currentScript:function(){for(var t=document.getElementsByTagName(&quot;script&quot;),e=t.length;e--;)if(t[e].getAttribute(&quot;data-cfhash&quot;))return t[e]}();if(t&amp;&amp;t.previousSibling){var e,r,n,i,c=t.previousSibling,a=c.getAttribute(&quot;data-cfemail&quot;);if(a){for(e=&quot;&quot;,r=parseInt(a.substr(0,2),16),n=2;a.length-n;n+=2)i=parseInt(a.substr(n,2),16)^r,e+=String.fromCharCode(i);e=document.createTextNode(e),c.parentNode.replaceChild(e,c)}t.parentNode.removeChild(t);}}catch(u){}}()/* ]]&gt; */&lt;/script&gt;\nFormat settings, CABAC           : Yes\nFormat settings, ReFrames        : 5 frames\nCodec ID                         : avc1\nCodec ID/Info                    : Advanced Video Coding\nDuration                         : 1h 55mn\nBit rate mode                    : Variable\nBit rate                         : 2 921 Kbps\nNominal bit rate                 : 2 965 Kbps\nMaximum bit rate                 : 28.5 Mbps\nWidth                            : 1 280 pixels\nHeight                           : 528 pixels\nDisplay aspect ratio             : 2.35:1\nFrame rate mode                  : Variable\nFrame rate                       : 23.976 fps\nMinimum frame rate               : 19.048 fps\nMaximum frame rate               : 24.390 fps\nResolution                       : 24 bits\nColorimetry                      : 4:2:0\nScan type                        : Progressive\nBits/(Pixel*Frame)               : 0.180\nStream size                      : 2.35 GiB (88%)\nWriting library                  : x264 core 112\n\nAudio\nID                               : 2\nFormat                           : AAC\nFormat/Info                      : Advanced Audio Codec\nFormat version                   : Version 4\nFormat profile                   : LC\nFormat settings, SBR             : No\nCodec ID                         : 40\nDuration                         : 1h 55mn\nBit rate mode                    : Variable\nBit rate                         : 384 Kbps\nMaximum bit rate                 : 642 Kbps\nChannel(s)                       : 6 channels\nChannel positions                : Front: L C R, Rear: L R, LFE\nSampling rate                    : 48.0 KHz\nResolution                       : 16 bits\nStream size                      : 316 MiB (12%)\nLanguage                         : English\n\nEnjoy...\n\nRequested by aartje80.\n\nComing up: The Bourne Trilogy, Blood Simple, Batman Begins and more...","torrent":{"xt":"urn:btih:91cdd49c55780dcdd4ecd08006e8465a12351afe","amp;dn":"Romeo+Must+Die-720p+MP4+AAC+x264+BRRip+2000-CC","amp;tr":["udp%3A%2F%2Ftracker.openbittorrent.com%3A80","udp%3A%2F%2Fopen.demonii.com%3A1337","udp%3A%2F%2Ftracker.coppersurfer.tk%3A6969","udp%3A%2F%2Fexodus.desync.com%3A6969"],"infoHash":"91cdd49c55780dcdd4ecd08006e8465a12351afe","infoHashBuffer":{"type":"Buffer","data":[145,205,212,156,85,120,13,205,212,236,208,128,6,232,70,90,18,53,26,254]},"announce":[],"urlList":[]}}